# xmcd CD database file generated by LOLA_Freedb v0.9beta0
# 
# Track frame offsets:
#      150
#      13173
#      24101
#      39511
#      51224
#      67365
#      83979
#      96114
#      108349
#      121608
#      136058
#      149624
# 
# Disc length: 2146 seconds
# 
# Revision: 0 
# Processed by: cddbd v1.5.1PL2 Copyright (c) Steve Scherf et al.
# Submitted via: LOLA_Freedb v0.9beta0
# 
DISCID=9f08600c
DTITLE=Alexandra - Stimme der Sehnsucht CD 1
DYEAR=1900
DGENRE=
TTITLE0=Sehnsucht (Das Lied der Taiga)
TTITLE1=Die Zährtlichkeit (La tendresse)
TTITLE2=Walzer des Sommers
TTITLE3=Akkordeon
TTITLE4=Golden earrings
TTITLE5=Mein Freund, der Baum
TTITLE6=Das Glück kam zu mir wie ein Traum
TTITLE7=Grau zieht der Nebel
TTITLE8=Illusionen
TTITLE9=Es war einmal ein Fischer
TTITLE10=Those were the days
TTITLE11=Ja lulbu tebja
EXTD=
EXTT0=
EXTT1=
EXTT2=
EXTT3=
EXTT4=
EXTT5=
EXTT6=
EXTT7=
EXTT8=
EXTT9=
EXTT10=
EXTT11=
PLAYORDER=
